<?xml version="1.0" encoding="UTF-8" standalone="no"?>
<!DOCTYPE svg PUBLIC "-//W3C//DTD SVG 1.1//EN" "http://www.w3.org/Graphics/SVG/1.1/DTD/svg11.dtd">
<svg version="1.1" xmlns="http://www.w3.org/2000/svg" xmlns:xlink="http://www.w3.org/1999/xlink" preserveAspectRatio="xMidYMid meet" viewBox="0 0 640 640" width="640" height="640"><defs><path d="M424.82 408.27L378.1 277.43L220.18 287.6L188.34 415.41L303.05 495.52L424.82 408.27Z" id="a4u38p1awP"></path><path d="M407.65 140.8L377.6 277.52L220.12 287.44L172.3 164.71L275.9 70.68L407.65 140.8Z" id="d1ckniS6LL"></path><path d="M219.67 287.44L188.34 415.41L66.25 406.58L50.53 226.19L172.3 164.6L219.67 287.44Z" id="bx66DAQha"></path><path d="M378.1 276.28L424.82 408.27L544.11 376.68L544.11 182.45L407.65 140.95L378.1 276.28Z" id="b4H0JqP9jX"></path><path d="M467.03 103.18L408.25 309.23L195.68 322.91L116.41 130.14L270.98 23.82L467.03 103.18Z" id="dfDkxGven"></path><path d="M467.03 471.8L408.51 308.75L195.46 322.91L153.3 483.08L304.9 563.84L467.03 471.8Z" id="f1ZA9a64e"></path><path d="M153.3 483.09L66.86 406.24" id="b1K97T7b7"></path><path d="M305.17 563.84L302.76 495.52" id="e1rjfJqYM7"></path><path d="M467.03 471.83L544.11 376.77" id="ddLlZB2jf"></path><path d="M116.94 129.65L50.53 226.15" id="b76RIAO6tE"></path><path d="M275.04 70.68L270.36 23.82" id="a2Qrcree1"></path><path d="M544.11 182.64L467.03 102.31" id="b1klAU3dqB"></path><path d="M371.17 261.46L225.91 270.16" id="k1aTvgUCbF"></path><path d="M376.71 224.15L215.12 233.38" id="fbcGNHAPy"></path><path d="M379.6 205.76L209.44 216.34" id="bapJWuv0vS"></path><path d="M394.83 148.81L185.3 162.87" id="a2KcSDy9DQ"></path><path d="M375.67 131.3L207.11 142.61" id="b8du4nWxM"></path><path d="M390.24 167.38L190.35 179.83" id="c3JO3rtgCA"></path><path d="M348.36 114.34L227.19 121.7" id="bt6CZpTvL"></path><path d="M384.75 187.11L199.05 198.22" id="e3U0RbRYOu"></path><path d="M374.44 243.07L223.02 251.78" id="cwgvqVsA"></path><path d="M321.15 98.82L285.1 100.89L245 103.18" id="b5caOPW7Dn"></path><path d="M294.43 86.21L263.07 88.06" id="c133nxYUA"></path><path d="M546.8 175.43L474.5 98.82" id="a4IzjaaEy"></path><path d="M402.2 324.7L453.75 465.28L302.76 550.96L169.25 477.33L204.73 338.09L402.2 324.7Z" id="ajOT2W7jT"></path><path d="M582.94 368.63L546.8 375.7" id="aAzobPnIl"></path><path d="M613.57 362.26L591.65 366.92" id="crnTCjZ3U"></path><path d="M632 358.24L618.92 361.06" id="g2kQCjbQao"></path><path d="M68.94 226.15C68.94 236.31 60.69 244.56 50.53 244.56C40.37 244.56 32.13 236.31 32.13 226.15C32.13 215.99 40.37 207.75 50.53 207.75C60.69 207.75 68.94 215.99 68.94 226.15Z" id="g2IbFzFZb"></path><path d="M82.33 226.15C82.33 243.7 68.08 257.95 50.53 257.95C32.99 257.95 18.74 243.7 18.74 226.15C18.74 208.6 32.99 194.36 50.53 194.36C68.08 194.36 82.33 208.6 82.33 226.15Z" id="d1sihcnmhN"></path></defs><g><g><g><g><use xlink:href="#a4u38p1awP" opacity="1" fill-opacity="0" stroke="#e7e7e7" stroke-width="1" stroke-opacity="1"></use></g></g><g><g><use xlink:href="#d1ckniS6LL" opacity="1" fill-opacity="0" stroke="#e7e7e7" stroke-width="1" stroke-opacity="1"></use></g></g><g><g><use xlink:href="#bx66DAQha" opacity="1" fill-opacity="0" stroke="#e7e7e7" stroke-width="1" stroke-opacity="1"></use></g></g><g><g><use xlink:href="#b4H0JqP9jX" opacity="1" fill-opacity="0" stroke="#e7e7e7" stroke-width="1" stroke-opacity="1"></use></g></g><g><g><use xlink:href="#dfDkxGven" opacity="1" fill-opacity="0" stroke="#ffd13c" stroke-width="1" stroke-opacity="1"></use></g></g><g><g><use xlink:href="#f1ZA9a64e" opacity="1" fill-opacity="0" stroke="#ffd13c" stroke-width="1" stroke-opacity="1"></use></g></g><g><g><use xlink:href="#b1K97T7b7" opacity="1" fill-opacity="0" stroke="#ffd13c" stroke-width="1" stroke-opacity="1"></use></g></g><g><g><use xlink:href="#e1rjfJqYM7" opacity="1" fill-opacity="0" stroke="#ffd13c" stroke-width="1" stroke-opacity="1"></use></g></g><g><g><use xlink:href="#ddLlZB2jf" opacity="1" fill-opacity="0" stroke="#ffd13c" stroke-width="1" stroke-opacity="1"></use></g></g><g><g><use xlink:href="#b76RIAO6tE" opacity="1" fill-opacity="0" stroke="#ffd13c" stroke-width="1" stroke-opacity="1"></use></g></g><g><g><use xlink:href="#a2Qrcree1" opacity="1" fill-opacity="0" stroke="#e7e7e7" stroke-width="1" stroke-opacity="1"></use></g></g><g><g><use xlink:href="#b1klAU3dqB" opacity="1" fill-opacity="0" stroke="#ffd13c" stroke-width="1" stroke-opacity="1"></use></g></g><g><g><use xlink:href="#k1aTvgUCbF" opacity="1" fill-opacity="0" stroke="#e7e7e7" stroke-width="1" stroke-opacity="1"></use></g></g><g><g><use xlink:href="#fbcGNHAPy" opacity="1" fill-opacity="0" stroke="#e7e7e7" stroke-width="1" stroke-opacity="1"></use></g></g><g><g><use xlink:href="#bapJWuv0vS" opacity="1" fill-opacity="0" stroke="#e7e7e7" stroke-width="1" stroke-opacity="1"></use></g></g><g><g><use xlink:href="#a2KcSDy9DQ" opacity="1" fill-opacity="0" stroke="#e7e7e7" stroke-width="1" stroke-opacity="1"></use></g></g><g><g><use xlink:href="#b8du4nWxM" opacity="1" fill-opacity="0" stroke="#e7e7e7" stroke-width="1" stroke-opacity="1"></use></g></g><g><g><use xlink:href="#c3JO3rtgCA" opacity="1" fill-opacity="0" stroke="#e7e7e7" stroke-width="1" stroke-opacity="1"></use></g></g><g><g><use xlink:href="#bt6CZpTvL" opacity="1" fill-opacity="0" stroke="#e7e7e7" stroke-width="1" stroke-opacity="1"></use></g></g><g><g><use xlink:href="#e3U0RbRYOu" opacity="1" fill-opacity="0" stroke="#e7e7e7" stroke-width="1" stroke-opacity="1"></use></g></g><g><g><use xlink:href="#cwgvqVsA" opacity="1" fill-opacity="0" stroke="#e7e7e7" stroke-width="1" stroke-opacity="1"></use></g></g><g><g><use xlink:href="#b5caOPW7Dn" opacity="1" fill-opacity="0" stroke="#e7e7e7" stroke-width="1" stroke-opacity="1"></use></g></g><g><g><use xlink:href="#c133nxYUA" opacity="1" fill-opacity="0" stroke="#e7e7e7" stroke-width="1" stroke-opacity="1"></use></g></g><g><g><use xlink:href="#a4IzjaaEy" opacity="1" fill-opacity="0" stroke="#e7e7e7" stroke-width="1" stroke-opacity="1"></use></g></g><g><g><use xlink:href="#ajOT2W7jT" opacity="1" fill-opacity="0" stroke="#ffd13c" stroke-width="0.5" stroke-opacity="1"></use></g></g><g><g><use xlink:href="#aAzobPnIl" opacity="1" fill-opacity="0" stroke="#e7e7e7" stroke-width="1" stroke-opacity="1"></use></g></g><g><g><use xlink:href="#crnTCjZ3U" opacity="1" fill-opacity="0" stroke="#e7e7e7" stroke-width="1" stroke-opacity="1"></use></g></g><g><g><use xlink:href="#g2kQCjbQao" opacity="1" fill-opacity="0" stroke="#e7e7e7" stroke-width="1" stroke-opacity="1"></use></g></g><g><g><use xlink:href="#g2IbFzFZb" opacity="1" fill-opacity="0" stroke="#ffd13c" stroke-width="1" stroke-opacity="1"></use></g></g><g><g><use xlink:href="#d1sihcnmhN" opacity="1" fill-opacity="0" stroke="#e7e7e7" stroke-width="1" stroke-opacity="1"></use></g></g></g></g></svg>