<svg xmlns:rdf="http://www.w3.org/1999/02/22-rdf-syntax-ns#" xmlns="http://www.w3.org/2000/svg" xmlns:cc="http://creativecommons.org/ns#" xmlns:dc="http://purl.org/dc/elements/1.1/" version="1.1" viewBox="0 0 100 125" x="0px" y="0px"><path style="baseline-shift:baseline;block-progression:tb;color:#000000;direction:ltr;text-indent:0;enable-background:accumulate;text-transform:none;" fill="#000" d="M29.219,14.875c-2.477,0-4.451,0.14-5.938,0.437-1.486,0.298-2.741,0.807-3.781,1.5-1.362,0.868-2.318,2.077-2.875,3.626-0.557,1.548-0.844,4.209-0.844,8v9.062c0,3.79-0.669,6.445-2.031,7.969-1.362,1.523-3.712,2.281-7.0312,2.281-0.1735,0-0.441-0.006-0.8126-0.031-0.3715-0.025-0.6768-0.031-0.875-0.031v4.718c0.1982,0,0.5035-0.006,0.875-0.031,0.3716-0.025,0.6391-0.062,0.8126-0.063,3.3192,0.001,5.6692,0.771,7.0312,2.282s2.031,4.141,2.031,7.906v9.062c0,3.692,0.287,6.353,0.844,7.938s1.513,2.796,2.875,3.688c1.04,0.693,2.314,1.202,3.812,1.5,1.499,0.297,3.454,0.437,5.907,0.437h1.312v-4.625h-1.437c-3.122,0-5.235-0.598-6.313-1.75-1.077-1.152-1.625-3.559-1.625-7.25v-9c0-4.112-0.516-7.028-1.594-8.75-1.077-1.722-3-2.944-5.75-3.688,2.75-0.767,4.673-2.028,5.75-3.75,1.078-1.721,1.594-4.637,1.594-8.75v-8.968c0-3.716,0.56-6.18,1.625-7.344s3.097-1.75,6.094-1.75c0.173,0,0.441,0.038,0.813,0.062,0.371,0.025,0.645,0.032,0.843,0.032v-4.719h-1.312zm40.406,0v4.625h1.469c3.096,0,5.191,0.605,6.281,1.781,1.09,1.177,1.625,3.622,1.625,7.313v8.968c0,4.113,0.547,7.029,1.625,8.75,1.078,1.722,2.969,2.983,5.719,3.75-2.75,0.744-4.641,1.966-5.719,3.688s-1.625,4.638-1.625,8.75v8.906c0,3.741-0.547,6.23-1.625,7.406-1.078,1.177-3.09,1.75-6.063,1.75-0.173,0-0.44-0.006-0.812-0.031s-0.677-0.031-0.875-0.031v4.625h1.531c2.527,0,4.52-0.121,5.969-0.406s2.659-0.762,3.625-1.407c1.338-0.891,2.267-2.114,2.812-3.687s0.813-4.272,0.813-8.063v-9c0-3.765,0.688-6.401,2.063-7.937,1.374-1.536,3.749-2.312,7.093-2.313,0.174,0.001,0.441,0.038,0.813,0.063,0.371,0.025,0.645,0.031,0.844,0.031v-4.718c-0.199,0-0.473,0.006-0.844,0.031-0.372,0.025-0.639,0.031-0.813,0.031-3.344,0-5.719-0.777-7.093-2.312-1.375-1.536-2.063-4.173-2.063-7.938v-9.062c0-3.766-0.268-6.44-0.813-8-0.545-1.561-1.474-2.758-2.812-3.626-1.04-0.668-2.333-1.159-3.844-1.468-1.511-0.31-3.491-0.469-5.968-0.469h-1.313zm-33.125,8.094c-4.279,0-7.781,3.564-7.781,7.843,0,3.442,2.26,6.354,5.375,7.376v23.593c-3.116,1.03-5.375,3.996-5.375,7.438,0,4.279,3.502,7.781,7.781,7.781s7.812-3.502,7.812-7.781c0-3.442-2.29-6.408-5.406-7.438v-0.375c0-3.557,1.089-4.956,3.094-6.218,2.005-1.263,5.155-2.043,8.562-2.876,3.408-0.832,7.098-1.742,10.157-4.031,2.779-2.079,4.783-5.441,5.125-10.062,3.144-1.004,5.468-3.944,5.468-7.407,0-4.279-3.533-7.843-7.812-7.843s-7.781,3.564-7.781,7.843c0,3.421,2.258,6.337,5.343,7.376-0.253,3.289-1.448,4.957-3.218,6.281-2.004,1.499-5.064,2.37-8.406,3.187-3.343,0.817-6.943,1.544-10,3.469-0.184,0.116-0.354,0.248-0.532,0.375v-13.312c3.115-1.022,5.406-3.934,5.406-7.376,0-4.279-3.533-7.843-7.812-7.843zm0,4.812c1.685,0,3.031,1.346,3.031,3.031,0,1.686-1.346,2.969-3.031,2.969s-3-1.283-3-2.969c0-1.685,1.315-3.031,3-3.031zm27,0c1.685,0,3.031,1.346,3.031,3.031,0,1.686-1.346,2.969-3.031,2.969s-3-1.283-3-2.969c0-1.685,1.315-3.031,3-3.031zm-27,38.407c1.685,0,3.031,1.345,3.031,3.031,0,1.685-1.346,2.969-3.031,2.969s-3-1.284-3-2.969c0-1.686,1.315-3.031,3-3.031z"/><text x="0" y="115" fill="#000000" font-size="5px" font-weight="bold" font-family="'Helvetica Neue', Helvetica, Arial-Unicode, Arial, Sans-serif">Created by Richard Slater</text><text x="0" y="120" fill="#000000" font-size="5px" font-weight="bold" font-family="'Helvetica Neue', Helvetica, Arial-Unicode, Arial, Sans-serif">from the Noun Project</text></svg>