<svg xmlns="http://www.w3.org/2000/svg" xmlns:xlink="http://www.w3.org/1999/xlink" version="1.1" x="0px" y="0px" viewBox="0 0 100 125" enable-background="new 0 0 100 100" xml:space="preserve"><path d="M91.765,5C86.644,5.851,81.682,5.057,76.7,5.428C51.89,7.285,53.943,24.559,54.382,36.34  C36.994,38.981,15.8,33.659,8.235,35.401c2.514,3.842,8.32,9.548,12.654,10.844c-2.46,1.748-5.749,2.09-8.725,3.111  c4.122,3.155,8.116,6.159,13.106,8.13c-2.399,0.933-4.68,1.98-7.188,2.674c5.784,5.971,15.066,8.313,23.137,8.898  c-6.33,17.996-18.429,17.633-25.774,19.441c12.804,5.465,32.687,8.645,42.467,4.826c15.07-5.884,23.272-15.016,28.616-30.483  c3.334-9.653,1.629-17.536-0.857-27.63c-1.585-6.439-2.311-8.993-1.78-15.564C84.565,11.282,89.984,6.331,91.765,5z"/><text x="0" y="115" fill="#000000" font-size="5px" font-weight="bold" font-family="'Helvetica Neue', Helvetica, Arial-Unicode, Arial, Sans-serif">Created by Vladimir Belochkin</text><text x="0" y="120" fill="#000000" font-size="5px" font-weight="bold" font-family="'Helvetica Neue', Helvetica, Arial-Unicode, Arial, Sans-serif">from the Noun Project</text></svg>